<svg width="116" height="31" viewBox="0 0 116 31" fill="none" xmlns="http://www.w3.org/2000/svg">
<g clip-path="url(#clip0_949_52182)">
<path d="M18.75 1.25391C10.7244 1.25391 4.21875 7.75957 4.21875 15.7852C4.21875 23.8107 10.7244 30.3164 18.75 30.3164C26.7756 30.3164 33.2812 23.8107 33.2812 15.7852C33.2812 7.75957 26.7756 1.25391 18.75 1.25391ZM23.5717 22.207C23.3432 22.4344 23.1035 22.6729 22.909 22.868C22.7338 23.0438 22.6102 23.2605 22.5475 23.4955C22.459 23.8271 22.3875 24.1623 22.268 24.484L21.249 27.2291C20.4428 27.4049 19.6084 27.5039 18.75 27.5039V25.8996C18.849 25.1602 18.3023 23.775 17.424 22.8967C17.0725 22.5451 16.875 22.0682 16.875 21.5707V19.6951C16.875 19.0131 16.5076 18.3861 15.9105 18.0563C15.0686 17.5904 13.8709 16.9395 13.0506 16.5264C12.3779 16.1877 11.7557 15.7564 11.1961 15.252L11.1492 15.2098C10.7491 14.8486 10.3938 14.4406 10.091 13.9945C9.54141 13.1877 8.64609 11.8605 8.06426 10.998C9.26367 8.33203 11.4252 6.19102 14.1111 5.02793L15.518 5.73164C16.1414 6.04336 16.875 5.59043 16.875 4.89316V4.23105C17.3432 4.15547 17.8195 4.10742 18.3041 4.08926L19.9623 5.74746C20.3285 6.11367 20.3285 6.70723 19.9623 7.07344L19.6875 7.34766L19.0816 7.95352C18.8988 8.13633 18.8988 8.4334 19.0816 8.61621L19.3564 8.89102C19.5393 9.07383 19.5393 9.3709 19.3564 9.55371L18.8877 10.0225C18.7997 10.1103 18.6804 10.1596 18.5561 10.1596H18.0293C17.9074 10.1596 17.7902 10.207 17.7023 10.2926L17.1211 10.858C17.0498 10.9274 17.0025 11.0176 16.9858 11.1157C16.9692 11.2137 16.9841 11.3145 17.0285 11.4035L17.942 13.2311C18.0979 13.5428 17.8711 13.9096 17.523 13.9096H17.1926C17.0795 13.9096 16.9705 13.8686 16.8855 13.7947L16.3418 13.3225C16.2188 13.2157 16.07 13.1428 15.9103 13.111C15.7505 13.0791 15.5852 13.0894 15.4307 13.1408L13.6043 13.7496C13.4649 13.7961 13.3436 13.8853 13.2577 14.0046C13.1718 14.1238 13.1255 14.2671 13.1256 14.4141C13.1256 14.6795 13.2756 14.9215 13.5129 15.0404L14.1621 15.365C14.7135 15.641 15.3217 15.7846 15.9381 15.7846C16.5545 15.7846 17.2617 17.3836 17.8131 17.6596H21.7242C22.2217 17.6596 22.698 17.857 23.0502 18.2086L23.8523 19.0107C24.1875 19.346 24.3757 19.8006 24.3756 20.2746C24.3755 20.6338 24.3044 20.9894 24.1664 21.321C24.0285 21.6526 23.8263 21.9538 23.5717 22.207ZM28.6523 16.8545C28.3131 16.7695 28.0172 16.5615 27.8232 16.2703L26.7697 14.69C26.6156 14.4592 26.5333 14.1878 26.5333 13.9102C26.5333 13.6325 26.6156 13.3612 26.7697 13.1303L27.9176 11.4088C28.0535 11.2055 28.2398 11.0402 28.459 10.9313L29.2195 10.551C30.0117 12.1283 30.4688 13.9025 30.4688 15.7852C30.4688 16.2932 30.4254 16.7906 30.3621 17.2816L28.6523 16.8545Z" fill="#3394FF"/>
</g>
<g filter="url(#filter0_d_949_52182)">
<path fill-rule="evenodd" clip-rule="evenodd" d="M17.0714 15.9986C17.0714 20.4366 13.4737 24.0343 9.03571 24.0343C4.59771 24.0343 1 20.4366 1 15.9986C1 11.5606 4.59771 7.96289 9.03571 7.96289H9.041H28.459H28.4642C32.9022 7.96289 36.4999 11.5606 36.4999 15.9986C36.4999 20.4366 32.9022 24.0343 28.4642 24.0343C24.0262 24.0343 20.4285 20.4366 20.4285 15.9986C20.4285 15.6074 20.4565 15.2227 20.5105 14.8465H16.9894C17.0435 15.2227 17.0714 15.6074 17.0714 15.9986Z" fill="#FFB05C"/>
</g>
<path fill-rule="evenodd" clip-rule="evenodd" d="M9.03571 9.46289C5.42614 9.46289 2.5 12.389 2.5 15.9986C2.5 19.6082 5.42614 22.5343 9.03571 22.5343C12.6453 22.5343 15.5714 19.6082 15.5714 15.9986C15.5714 15.6789 15.5486 15.3655 15.5047 15.0596C15.4429 14.629 15.571 14.1928 15.8559 13.8641C16.1408 13.5353 16.5544 13.3465 16.9894 13.3465H20.5105C20.9455 13.3465 21.3591 13.5353 21.644 13.8641C21.9289 14.1928 22.0571 14.629 21.9953 15.0596C21.9513 15.3655 21.9285 15.6789 21.9285 15.9986C21.9285 19.6082 24.8546 22.5343 28.4642 22.5343C32.0738 22.5343 34.9999 19.6082 34.9999 15.9986C34.9999 12.389 32.0738 9.46289 28.4642 9.46289H9.03571ZM9.03571 7.96289C4.59771 7.96289 1 11.5606 1 15.9986C1 20.4366 4.59771 24.0343 9.03571 24.0343C13.3572 24.0343 16.8819 20.6231 17.064 16.3465C17.0689 16.2311 17.0714 16.1152 17.0714 15.9986C17.0714 15.6074 17.0435 15.2227 16.9894 14.8465H20.5105C20.4565 15.2227 20.4285 15.6074 20.4285 15.9986C20.4285 16.1152 20.431 16.2311 20.4359 16.3465C20.618 20.6231 24.1428 24.0343 28.4642 24.0343C32.9022 24.0343 36.4999 20.4366 36.4999 15.9986C36.4999 11.5606 32.9022 7.96289 28.4642 7.96289H9.03571Z" fill="white"/>
<path d="M6.19434 16.9141H11.8769V15.0877H6.19434V16.9141Z" fill="white"/>
<path fill-rule="evenodd" clip-rule="evenodd" d="M6.19434 16.9141V15.0877H11.8769V16.9141H6.19434Z" fill="white"/>
<path d="M8.12256 13.1582L8.12256 18.8408L9.94888 18.8408L9.94889 13.1582L8.12256 13.1582Z" fill="white"/>
<path fill-rule="evenodd" clip-rule="evenodd" d="M8.12256 13.1582L9.94889 13.1582L9.94888 18.8408L8.12256 18.8408L8.12256 13.1582Z" fill="white"/>
<path d="M27.7251 13.1504L27.7251 14.7575L29.3322 14.7575L29.3322 13.1504L27.7251 13.1504Z" fill="white"/>
<path fill-rule="evenodd" clip-rule="evenodd" d="M27.7251 13.1504L29.3322 13.1504L29.3322 14.7575L27.7251 14.7575L27.7251 13.1504Z" fill="white"/>
<path d="M27.7251 17.2246L27.7251 18.8318L29.3322 18.8318L29.3322 17.2246L27.7251 17.2246Z" fill="white"/>
<path fill-rule="evenodd" clip-rule="evenodd" d="M27.7251 17.2246L29.3322 17.2246L29.3322 18.8318L27.7251 18.8318L27.7251 17.2246Z" fill="white"/>
<path d="M31.3701 15.1895L29.763 15.1895L29.763 16.7966L31.3701 16.7966L31.3701 15.1895Z" fill="white"/>
<path fill-rule="evenodd" clip-rule="evenodd" d="M31.3701 15.1895L31.3701 16.7966L29.763 16.7966L29.763 15.1895L31.3701 15.1895Z" fill="white"/>
<path d="M27.2949 15.1895L25.6878 15.1895L25.6878 16.7966L27.2949 16.7966L27.2949 15.1895Z" fill="white"/>
<path fill-rule="evenodd" clip-rule="evenodd" d="M27.2949 15.1895L27.2949 16.7966L25.6878 16.7966L25.6878 15.1895L27.2949 15.1895Z" fill="white"/>
<path d="M45.0456 23.7778C44.8856 23.7778 44.7546 23.7259 44.6528 23.6222C44.5509 23.5185 44.5 23.3852 44.5 23.2222V8.77778C44.5 8.61482 44.5509 8.48148 44.6528 8.37778C44.7546 8.27407 44.8856 8.22222 45.0456 8.22222H54.9317C55.0917 8.22222 55.2227 8.27407 55.3245 8.37778C55.4264 8.48148 55.4773 8.61482 55.4773 8.77778V10.5556C55.4773 10.7037 55.4264 10.8296 55.3245 10.9333C55.2227 11.037 55.0917 11.0889 54.9317 11.0889H47.8608V14.5778H54.4516C54.6116 14.5778 54.7426 14.6296 54.8444 14.7333C54.9462 14.837 54.9972 14.9704 54.9972 15.1333V16.7778C54.9972 16.9259 54.9462 17.0519 54.8444 17.1556C54.7426 17.2593 54.6116 17.3111 54.4516 17.3111H47.8608V20.9111H55.1063C55.2663 20.9111 55.3973 20.963 55.4991 21.0667C55.601 21.1704 55.6519 21.3037 55.6519 21.4667V23.2222C55.6519 23.3852 55.601 23.5185 55.4991 23.6222C55.3973 23.7259 55.2663 23.7778 55.1063 23.7778H45.0456Z" fill="#0A0A0A"/>
<path d="M61.3889 24C60.6178 24 59.9268 23.8519 59.3157 23.5556C58.7046 23.2444 58.2172 22.8296 57.8535 22.3111C57.4898 21.7926 57.3079 21.2148 57.3079 20.5778C57.3079 19.5259 57.7226 18.6963 58.5519 18.0889C59.3957 17.4815 60.5014 17.0667 61.8691 16.8444L64.728 16.4222V16.0222C64.728 15.4444 64.597 15 64.3351 14.6889C64.0732 14.3778 63.6149 14.2222 62.9602 14.2222C62.4801 14.2222 62.0946 14.3185 61.8036 14.5111C61.5126 14.7037 61.2871 14.9556 61.1271 15.2667C61.0107 15.4593 60.8433 15.5556 60.6251 15.5556H58.5519C58.3918 15.5556 58.2682 15.5111 58.1809 15.4222C58.0936 15.3185 58.0572 15.2 58.0717 15.0667C58.0717 14.8148 58.1663 14.5185 58.3555 14.1778C58.5446 13.837 58.8356 13.5037 59.2284 13.1778C59.6212 12.837 60.1232 12.5556 60.7342 12.3333C61.3453 12.1111 62.0946 12 62.9821 12C63.8987 12 64.6843 12.1111 65.339 12.3333C65.9937 12.5556 66.5175 12.8667 66.9103 13.2667C67.3031 13.6667 67.5941 14.1333 67.7833 14.6667C67.9724 15.1852 68.067 15.7481 68.067 16.3556V23.2222C68.067 23.3852 68.016 23.5185 67.9142 23.6222C67.8124 23.7259 67.6814 23.7778 67.5214 23.7778H65.3827C65.2372 23.7778 65.1135 23.7259 65.0117 23.6222C64.9098 23.5185 64.8589 23.3852 64.8589 23.2222V22.4C64.6698 22.6815 64.4151 22.9481 64.0951 23.2C63.775 23.437 63.3894 23.6296 62.9384 23.7778C62.5019 23.9259 61.9854 24 61.3889 24ZM62.2619 21.6889C62.742 21.6889 63.1712 21.5852 63.5495 21.3778C63.9278 21.1704 64.226 20.8519 64.4442 20.4222C64.6625 19.9926 64.7716 19.4519 64.7716 18.8V18.4222L62.742 18.7556C61.9564 18.8889 61.3817 19.0889 61.0179 19.3556C60.6542 19.6222 60.4723 19.9481 60.4723 20.3333C60.4723 20.6148 60.5524 20.8593 60.7124 21.0667C60.887 21.2741 61.1125 21.4296 61.3889 21.5333C61.6654 21.637 61.9564 21.6889 62.2619 21.6889Z" fill="#0A0A0A"/>
<path d="M71.2767 23.7778C71.1313 23.7778 71.0076 23.7259 70.9057 23.6222C70.8039 23.5185 70.753 23.3852 70.753 23.2222V12.7778C70.753 12.6296 70.8039 12.5037 70.9057 12.4C71.0076 12.2815 71.1313 12.2222 71.2767 12.2222H73.4155C73.561 12.2222 73.6846 12.2815 73.7865 12.4C73.9029 12.5037 73.9611 12.6296 73.9611 12.7778V13.6667C74.3248 13.2074 74.7685 12.8519 75.2923 12.6C75.8306 12.3481 76.4489 12.2222 77.1473 12.2222H78.0857C78.2312 12.2222 78.3549 12.2741 78.4567 12.3778C78.5586 12.4815 78.6095 12.6148 78.6095 12.7778V14.6889C78.6095 14.8519 78.5586 14.9852 78.4567 15.0889C78.3549 15.1926 78.2312 15.2444 78.0857 15.2444H76.1652C75.5251 15.2444 75.0231 15.4296 74.6594 15.8C74.2957 16.1556 74.1138 16.6667 74.1138 17.3333V23.2222C74.1138 23.3852 74.0629 23.5185 73.9611 23.6222C73.8592 23.7259 73.7283 23.7778 73.5682 23.7778H71.2767Z" fill="#0A0A0A"/>
<path d="M85.7364 23.7778C84.8344 23.7778 84.0633 23.6296 83.4231 23.3333C82.783 23.0222 82.2956 22.5481 81.961 21.9111C81.6409 21.2741 81.4808 20.4741 81.4808 19.5111V14.8444H79.7786C79.6185 14.8444 79.4876 14.7926 79.3858 14.6889C79.2839 14.5852 79.233 14.4519 79.233 14.2889V12.7778C79.233 12.6148 79.2839 12.4815 79.3858 12.3778C79.4876 12.2741 79.6185 12.2222 79.7786 12.2222H81.4808V8.55555C81.4808 8.39259 81.5318 8.25926 81.6336 8.15556C81.75 8.05185 81.8809 8 82.0264 8H84.1651C84.3252 8 84.4561 8.05185 84.558 8.15556C84.6598 8.25926 84.7107 8.39259 84.7107 8.55555V12.2222H87.4387C87.5842 12.2222 87.7078 12.2741 87.8097 12.3778C87.9115 12.4815 87.9625 12.6148 87.9625 12.7778V14.2889C87.9625 14.4519 87.9115 14.5852 87.8097 14.6889C87.7078 14.7926 87.5842 14.8444 87.4387 14.8444H84.7107V19.2444C84.7107 19.8074 84.8053 20.2519 84.9944 20.5778C85.1981 20.8889 85.5473 21.0444 86.042 21.0444H87.6351C87.7806 21.0444 87.9043 21.0963 88.0061 21.2C88.1079 21.3037 88.1589 21.4296 88.1589 21.5778V23.2222C88.1589 23.3852 88.1079 23.5185 88.0061 23.6222C87.9043 23.7259 87.7806 23.7778 87.6351 23.7778H85.7364Z" fill="#0A0A0A"/>
<path d="M90.6521 23.7778C90.492 23.7778 90.3611 23.7259 90.2592 23.6222C90.1574 23.5185 90.1065 23.3852 90.1065 23.2222V8.55555C90.1065 8.39259 90.1574 8.25926 90.2592 8.15556C90.3611 8.05185 90.492 8 90.6521 8H93.009C93.1545 8 93.2782 8.05185 93.38 8.15556C93.4818 8.25926 93.5328 8.39259 93.5328 8.55555V13.5556C93.9256 13.0815 94.4057 12.7037 94.9731 12.4222C95.5405 12.1407 96.2243 12 97.0246 12C97.8829 12 98.6395 12.2 99.2942 12.6C99.9635 12.9852 100.487 13.5556 100.866 14.3111C101.244 15.0519 101.433 15.9556 101.433 17.0222V23.2222C101.433 23.3852 101.382 23.5185 101.28 23.6222C101.178 23.7259 101.047 23.7778 100.887 23.7778H98.5086C98.3631 23.7778 98.2394 23.7259 98.1375 23.6222C98.0357 23.5185 97.9848 23.3852 97.9848 23.2222V17.1556C97.9848 16.3704 97.7956 15.763 97.4174 15.3333C97.0391 14.8889 96.5008 14.6667 95.8024 14.6667C95.1186 14.6667 94.5657 14.8889 94.1438 15.3333C93.7365 15.763 93.5328 16.3704 93.5328 17.1556V23.2222C93.5328 23.3852 93.4818 23.5185 93.38 23.6222C93.2782 23.7259 93.1545 23.7778 93.009 23.7778H90.6521Z" fill="#0A0A0A"/>
<path d="M106.62 23.7778C106.489 23.7778 106.38 23.7333 106.292 23.6444C106.205 23.5407 106.161 23.4222 106.161 23.2889C106.161 23.2148 106.169 23.1556 106.183 23.1111C106.212 23.0667 106.234 23.0296 106.249 23L109.413 18.6C109.151 18.6593 108.889 18.6815 108.628 18.6667C107.929 18.637 107.267 18.4963 106.642 18.2444C106.016 17.9778 105.456 17.6148 104.961 17.1556C104.467 16.6963 104.081 16.1556 103.805 15.5333C103.528 14.9111 103.39 14.2222 103.39 13.4667C103.39 12.7852 103.514 12.1185 103.761 11.4667C104.023 10.8148 104.408 10.2296 104.918 9.71111C105.427 9.19259 106.06 8.77778 106.816 8.46667C107.573 8.15556 108.453 8 109.457 8C110.461 8 111.341 8.14074 112.098 8.42222C112.869 8.7037 113.516 9.0963 114.04 9.6C114.564 10.0889 114.956 10.6593 115.218 11.3111C115.48 11.9481 115.611 12.6296 115.611 13.3556C115.611 14.0074 115.502 14.6148 115.284 15.1778C115.066 15.7407 114.796 16.2667 114.476 16.7556C114.156 17.2444 113.836 17.7185 113.516 18.1778L109.85 23.3333C109.791 23.4074 109.704 23.5037 109.588 23.6222C109.471 23.7259 109.304 23.7778 109.086 23.7778H106.62ZM109.479 16.0444C109.959 16.0444 110.395 15.9407 110.788 15.7333C111.181 15.5259 111.486 15.2296 111.705 14.8444C111.937 14.4593 112.054 14 112.054 13.4667C112.054 12.9185 111.937 12.4519 111.705 12.0667C111.486 11.6815 111.181 11.3852 110.788 11.1778C110.395 10.9704 109.959 10.8667 109.479 10.8667C109.013 10.8667 108.584 10.9704 108.191 11.1778C107.798 11.3852 107.485 11.6815 107.253 12.0667C107.034 12.4519 106.925 12.9185 106.925 13.4667C106.925 14 107.034 14.4593 107.253 14.8444C107.485 15.2296 107.798 15.5259 108.191 15.7333C108.584 15.9407 109.013 16.0444 109.479 16.0444Z" fill="#0A0A0A"/>
<defs>
<filter id="filter0_d_949_52182" x="1" y="7.96289" width="35.5" height="17.0714" filterUnits="userSpaceOnUse" color-interpolation-filters="sRGB">
<feFlood flood-opacity="0" result="BackgroundImageFix"/>
<feColorMatrix in="SourceAlpha" type="matrix" values="0 0 0 0 0 0 0 0 0 0 0 0 0 0 0 0 0 0 127 0" result="hardAlpha"/>
<feOffset dy="1"/>
<feComposite in2="hardAlpha" operator="out"/>
<feColorMatrix type="matrix" values="0 0 0 0 0 0 0 0 0 0 0 0 0 0 0 0 0 0 0.25 0"/>
<feBlend mode="normal" in2="BackgroundImageFix" result="effect1_dropShadow_949_52182"/>
<feBlend mode="normal" in="SourceGraphic" in2="effect1_dropShadow_949_52182" result="shape"/>
</filter>
<clipPath id="clip0_949_52182">
<rect width="30" height="30" fill="white" transform="translate(3.75 0.785156)"/>
</clipPath>
</defs>
</svg>
